<svg id="Layer_1" data-name="Layer 1" xmlns="http://www.w3.org/2000/svg" viewBox="0 0 8.6 11.95"><defs><style>.cls-1{fill:#fff;}</style></defs><title>speaker-no-vol</title><path class="cls-1" d="M0.41,4.1A0.31,0.31,0,0,1,.49,3.9,0.52,0.52,0,0,1,1,3.58H4.34a0.08,0.08,0,0,0,.08,0L8,0.42a0.61,0.61,0,0,1,.8,0h0A0.6,0.6,0,0,1,9,.78V11.67a0.52,0.52,0,0,1-.48.56H8.34A1,1,0,0,1,7.9,12l-0.08,0-3.48-3a0.12,0.12,0,0,0-.08,0H0.93A0.52,0.52,0,0,1,.45,8.59c0-.08,0-0.16-0.08-0.24S0.41,4.1.41,4.1Z" transform="translate(-0.37 -0.27)"/></svg>