<svg id="Layer_1" data-name="Layer 1" xmlns="http://www.w3.org/2000/svg" viewBox="0 0 13.37 11.95"><defs><style>.cls-1{fill:#fff;}</style></defs><title>speaker-half-vol</title><path class="cls-1" d="M0.41,4.1A0.31,0.31,0,0,1,.49,3.9,0.52,0.52,0,0,1,1,3.58H4.34a0.08,0.08,0,0,0,.08,0L8,0.42a0.61,0.61,0,0,1,.8,0h0A0.6,0.6,0,0,1,9,.78V11.67a0.52,0.52,0,0,1-.48.56H8.34A1,1,0,0,1,7.9,12l-0.08,0-3.48-3a0.12,0.12,0,0,0-.08,0H0.93A0.52,0.52,0,0,1,.45,8.59c0-.08,0-0.16-0.08-0.24S0.41,4.1.41,4.1Z" transform="translate(-0.37 -0.27)"/><path class="cls-1" d="M13.74,6.3a7.1,7.1,0,0,1-1.4,4.24,0.53,0.53,0,0,1-.76.12,0.41,0.41,0,0,1-.2-0.32,0.56,0.56,0,0,1,.08-0.44,7,7,0,0,0,.44-0.72A6.07,6.07,0,0,0,11.66,3l-0.24-.36a0.54,0.54,0,0,1,.2-0.76,0.55,0.55,0,0,1,.72.12,7.43,7.43,0,0,1,1.16,2.4A7,7,0,0,1,13.74,6V6.3Z" transform="translate(-0.37 -0.27)"/><path class="cls-1" d="M11.58,6.22a5.18,5.18,0,0,1-.72,2.68,0.64,0.64,0,0,1-.36.28A0.53,0.53,0,0,1,9.9,9a0.54,0.54,0,0,1,0-.6,3.19,3.19,0,0,0,.32-0.64,3.55,3.55,0,0,0,.28-1.12,3.9,3.9,0,0,0-.6-2.48,0.57,0.57,0,0,1,.88-0.72,0.21,0.21,0,0,1,.08.12,3.24,3.24,0,0,1,.4.84,4.76,4.76,0,0,1,.36,1.44A0.62,0.62,0,0,0,11.58,6.22Z" transform="translate(-0.37 -0.27)"/></svg>