<svg id="Layer_1" data-name="Layer 1" xmlns="http://www.w3.org/2000/svg" viewBox="0 0 13.62 13.59"><defs><style>.cls-1,.cls-2,.cls-3{fill:#fff;}.cls-2{stroke:#fff;stroke-width:1.5px;}.cls-2,.cls-3{stroke-miterlimit:10;}.cls-3{stroke:#231f20;}</style></defs><title>volume-mute</title><path class="cls-1" d="M1.37,5.18A0.31,0.31,0,0,1,1.45,5a0.52,0.52,0,0,1,.48-0.32H5.3a0.08,0.08,0,0,0,.08,0L9,1.49a0.61,0.61,0,0,1,.8,0h0a0.6,0.6,0,0,1,.16.36V12.74a0.52,0.52,0,0,1-.48.56H9.3a1,1,0,0,1-.44-0.24L8.78,13,5.3,10a0.12,0.12,0,0,0-.08,0H1.89a0.52,0.52,0,0,1-.48-0.32c0-.08,0-0.16-0.08-0.24S1.37,5.18,1.37,5.18Z" transform="translate(-0.11 -0.31)"/><line class="cls-2" x1="1.09" y1="0.53" x2="13.09" y2="12.53"/><line class="cls-3" x1="0.35" y1="0.86" x2="12.73" y2="13.24"/></svg>